<?xml version="1.0" encoding="UTF-8" standalone="no"?>
<!DOCTYPE svg PUBLIC "-//W3C//DTD SVG 1.1//EN" "http://www.w3.org/Graphics/SVG/1.1/DTD/svg11.dtd">
<svg width="100%" height="100%" viewBox="0 0 18 18" version="1.1" xmlns="http://www.w3.org/2000/svg" xmlns:xlink="http://www.w3.org/1999/xlink" xml:space="preserve" xmlns:serif="http://www.serif.com/" style="fill-rule:evenodd;clip-rule:evenodd;stroke-linejoin:round;stroke-miterlimit:2;">
    <g transform="matrix(1,0,0,1,-708.9,-1104.41)">
        <g transform="matrix(0.9,0,0,0.9,707.1,1102.61)">
            <path id="ic_comment_24px" d="M21.99,4C21.99,2.9 21.1,2 20,2L4,2C2.9,2 2,2.9 2,4L2,16C2,17.1 2.9,18 4,18L18,18L22,22L21.99,4ZM18,14L6,14L6,12L18,12L18,14ZM18,11L6,11L6,9L18,9L18,11ZM18,8L6,8L6,6L18,6L18,8Z" style="fill:rgb(183,197,210);fill-rule:nonzero;"/>
        </g>
    </g>
</svg>
